<svg xmlns="http://www.w3.org/2000/svg" viewBox="0 0 200 200" width="100%" height="100%">
  <!-- Todo finalizado -->
  <path d="M 60,120 C 60,60 140,60 140,120 Z" fill="none" stroke="black" stroke-width="6" stroke-linejoin="round" />
  <path d="M 65,80 L 50,40 L 90,65" fill="none" stroke="black" stroke-width="6" stroke-linejoin="round" />
  <path d="M 135,80 L 150,40 L 110,65" fill="none" stroke="black" stroke-width="6" stroke-linejoin="round" />
  <circle cx="85" cy="95" r="8" fill="black" />
  <circle cx="115" cy="95" r="8" fill="black" />
  <!-- Brillos -->
  <circle cx="82" cy="92" r="2" fill="white" />
  <circle cx="112" cy="92" r="2" fill="white" />
  
  <path d="M 97,105 L 100,108 L 103,105" fill="none" stroke="black" stroke-width="4" stroke-linecap="round" />
  <line x1="70" y1="100" x2="40" y2="95" stroke="black" stroke-width="4" stroke-linecap="round" />
  <line x1="70" y1="105" x2="40" y2="105" stroke="black" stroke-width="4" stroke-linecap="round" />
  <line x1="130" y1="100" x2="160" y2="95" stroke="black" stroke-width="4" stroke-linecap="round" />
  <line x1="130" y1="105" x2="160" y2="105" stroke="black" stroke-width="4" stroke-linecap="round" />
  <path d="M 85,120 C 85,110 95,110 95,120" fill="none" stroke="black" stroke-width="4" />
  <path d="M 105,120 C 105,110 115,110 115,120" fill="none" stroke="black" stroke-width="4" />
  
  <!-- Nuevo: Cola -->
  <path d="M 140,110 C 170,110 170,60 150,70" fill="none" stroke="black" stroke-width="6" stroke-linecap="round" />
</svg>
