<svg xmlns="http://www.w3.org/2000/svg" viewBox="0 0 200 200" width="100%" height="100%">
  <!-- Gato sentado de espaldas / perfil lindo -->
  <path d="M 60,150 C 60,90 90,60 120,60 C 150,60 150,90 150,150 Z" fill="none" stroke="black" stroke-width="6" stroke-linecap="round" stroke-linejoin="round" />
  <!-- Orejas -->
  <path d="M 120,60 L 110,30 L 90,50" fill="none" stroke="black" stroke-width="6" stroke-linecap="round" stroke-linejoin="round" />
  <path d="M 150,80 L 170,50 L 140,40" fill="none" stroke="black" stroke-width="6" stroke-linecap="round" stroke-linejoin="round" />
  <!-- Ojos y Nariz -->
  <circle cx="125" cy="85" r="4" fill="black" />
  <circle cx="145" cy="85" r="4" fill="black" />
  <path d="M 132,95 L 135,98 L 138,95" fill="none" stroke="black" stroke-width="3" stroke-linecap="round" />
  <!-- Bigotes -->
  <line x1="155" y1="90" x2="180" y2="85" stroke="black" stroke-width="3" stroke-linecap="round" />
  <line x1="155" y1="95" x2="180" y2="95" stroke="black" stroke-width="3" stroke-linecap="round" />
  <line x1="115" y1="90" x2="90" y2="85" stroke="black" stroke-width="3" stroke-linecap="round" />
  <line x1="115" y1="95" x2="90" y2="95" stroke="black" stroke-width="3" stroke-linecap="round" />
  <!-- Cola -->
  <path d="M 60,140 C 30,140 30,80 50,70" fill="none" stroke="black" stroke-width="6" stroke-linecap="round" />
  <!-- Base -->
  <line x1="40" y1="150" x2="160" y2="150" stroke="black" stroke-width="6" stroke-linecap="round" />
</svg>
